{"glyphs":{" ":{"ha":345,"x_min":0,"x_max":0,"o":""},"#":{"ha":12035,"x_min":3,"x_max":12032,"o":"m 962 457 q 1100 387 1068 430 q 1110 349 1116 365 l 1110 -106 q 884 -174 1030 -180 q 407 11 623 -174 q 173 500 173 212 q 343 974 173 802 q 804 1144 512 1144 q 1172 983 1046 1144 q 1249 822 1235 903 l 1299 1147 q 789 1208 1197 1178 q 96 856 282 1208 q 12 503 3 680 q 258 -86 12 113 q 835 -261 473 -261 q 1284 -159 1157 -261 l 1284 349 q 1294 387 1278 365 q 1432 457 1326 430 l 962 457 m 1717 448 l 1850 831 l 1979 447 l 1717 448 m 2266 68 q 1858 1044 2230 139 l 1493 76 q 1466 33 1486 55 q 1358 -22 1426 -13 l 1670 -22 q 1630 -7 1650 -18 q 1588 45 1588 15 l 1701 382 l 1995 382 l 2132 29 q 2050 -22 2075 13 l 2387 -22 q 2341 -4 2366 -18 q 2266 68 2289 23 m 3556 1032 l 3114 165 l 2686 1044 l 2563 87 q 2516 13 2559 45 q 2473 -9 2494 -3 l 2776 -9 q 2732 13 2755 -3 q 2686 87 2689 45 l 2686 121 l 2759 663 l 3110 2 l 3114 -1 l 3115 -1 l 3115 -2 l 3116 -1 l 3470 638 l 3592 109 l 3592 75 q 3545 1 3589 33 q 3503 -22 3524 -15 l 3805 -22 q 3762 1 3784 -15 q 3715 75 3718 33 l 3556 1032 m 4298 21 q 4160 66 4224 21 q 4111 111 4128 88 l 4111 507 l 4281 507 q 4396 450 4361 507 q 4414 393 4413 422 l 4440 602 q 4333 567 4399 568 l 4111 567 l 4111 966 l 4314 966 q 4408 907 4378 966 q 4425 850 4423 878 l 4465 1044 l 4425 1025 l 3878 1025 q 3986 953 3963 1001 q 3988 83 3988 157 q 3942 3 3988 37 q 3896 -22 3919 -14 l 4465 -22 l 4487 162 q 4437 92 4469 127 q 4298 21 4372 21 m 5212 703 q 5309 640 5271 685 q 5364 465 5364 575 q 5309 296 5364 355 q 5212 241 5271 254 l 5212 703 m 5196 239 q 5175 237 5185 237 l 5175 711 q 5196 708 5185 710 l 5196 239 m 5149 238 q 5132 241 5141 239 l 5132 708 q 5149 711 5141 710 l 5149 238 m 5116 245 q 5019 307 5056 263 q 4966 475 4966 369 q 5019 644 4966 583 q 5116 705 5056 688 l 5116 245 m 5174 741 q 5037 712 5105 744 q 4900 467 4900 648 q 4997 267 4900 338 q 5174 211 5075 211 q 5341 275 5264 211 q 5429 465 5429 350 q 5343 665 5429 583 q 5174 741 5265 741 m 5653 701 q 5699 673 5684 701 q 5707 644 5707 658 l 5728 741 l 5707 731 l 5436 731 q 5490 695 5478 719 q 5490 421 5490 545 l 5490 421 l 5490 260 q 5467 222 5488 238 q 5445 211 5456 214 l 5597 211 q 5575 222 5586 214 q 5551 260 5554 238 l 5551 269 l 5552 277 l 5552 473 l 5636 473 q 5693 446 5676 473 q 5702 417 5702 431 l 5716 521 q 5663 503 5695 504 l 5552 503 l 5552 701 l 5653 701 m 11504 1358 l 11452 1334 l 5884 1334 l 5832 1358 l 5884 1106 q 5906 1181 5887 1143 q 6028 1256 5945 1256 l 6289 1256 l 6289 1240 q 6291 526 6290 848 l 6291 105 q 6229 8 6286 50 q 6173 -22 6200 -13 l 6569 -22 q 6512 8 6541 -13 q 6451 105 6455 50 l 6451 526 q 6453 1240 6452 848 l 6453 1256 l 11308 1256 q 11431 1181 11392 1256 q 11452 1106 11450 1143 l 11504 1358 m 7500 946 q 7547 1021 7503 989 q 7591 1044 7569 1037 l 7285 1044 q 7328 1021 7307 1037 q 7376 946 7372 989 l 7376 600 l 6789 600 l 6789 946 q 6837 1021 6793 989 q 6880 1044 6858 1037 l 6574 1044 q 6618 1021 6596 1037 q 6665 946 6662 989 l 6665 77 q 6618 1 6662 33 q 6574 -22 6596 -15 l 6880 -22 q 6837 1 6858 -15 q 6789 77 6793 33 l 6789 526 l 7376 526 l 7376 77 q 7328 1 7372 33 q 7285 -22 7307 -15 l 7591 -22 q 7547 1 7569 -15 q 7500 77 7503 33 l 7500 946 m 7865 507 q 7869 925 7869 842 q 7893 991 7869 981 q 7977 996 7902 996 q 8114 932 8053 996 q 8188 715 8188 853 q 8116 536 8188 589 q 8043 507 8080 509 l 7865 507 m 8274 320 q 8152 472 8205 422 q 8299 686 8261 570 q 8313 781 8317 743 q 8089 1033 8313 987 q 7865 1038 7977 1056 l 7652 1038 q 7694 1015 7673 1030 q 7742 939 7739 983 l 7742 76 q 7694 1 7739 33 q 7652 -22 7673 -15 l 7955 -22 q 7912 1 7934 -15 q 7865 76 7868 33 l 7865 433 q 8097 359 8002 433 q 8166 286 8145 322 q 8276 132 8212 209 q 8493 -22 8404 -22 q 8628 1 8583 -22 q 8655 24 8651 12 q 8432 121 8554 2 q 8274 320 8365 188 m 9148 970 q 9345 841 9269 932 q 9454 490 9454 711 q 9345 149 9454 269 q 9148 39 9269 65 l 9148 970 m 9117 34 q 9075 31 9096 31 l 9075 986 q 9117 979 9095 983 l 9117 34 m 9022 33 q 8987 39 9006 35 l 8987 979 q 9022 985 9005 983 l 9022 33 m 8955 47 q 8761 171 8836 83 q 8654 511 8654 296 q 8761 850 8654 726 q 8955 972 8836 938 l 8955 47 m 9071 1044 q 8796 987 8934 1052 q 8521 494 8521 857 q 8717 91 8521 233 q 9071 -22 8873 -22 q 9408 108 9253 -22 q 9587 490 9587 258 q 9413 893 9587 727 q 9071 1044 9256 1044 m 10405 1044 q 10449 1021 10426 1037 q 10496 945 10493 989 l 10496 230 l 9720 1044 l 9720 77 q 9673 1 9717 33 q 9629 -22 9650 -15 l 9935 -22 q 9892 1 9913 -15 q 9844 77 9848 33 l 9844 783 l 10619 -22 l 10619 -21 l 10620 -22 l 10620 945 q 10668 1021 10624 989 q 10711 1044 10689 1037 l 10405 1044 m 11203 20 q 11067 64 11130 20 q 11020 109 11036 87 l 11020 498 l 11186 498 q 11300 443 11266 498 q 11317 387 11317 415 l 11343 593 q 11239 557 11302 559 l 11020 557 l 11020 966 l 11218 966 q 11312 909 11282 966 q 11328 852 11326 881 l 11367 1044 l 11328 1026 l 10790 1026 q 10896 954 10873 1002 q 10897 81 10897 155 q 10853 2 10897 36 q 10808 -22 10830 -14 l 11367 -22 l 11389 159 q 11340 90 11372 124 q 11203 20 11277 20 m 11805 606 q 11622 860 11622 756 q 11667 958 11622 923 q 11801 994 11713 994 q 11928 927 11880 994 q 11967 819 11967 874 l 12000 1004 q 11965 1024 11993 1014 q 11797 1044 11908 1044 q 11588 973 11669 1044 q 11513 815 11513 908 q 11572 659 11513 736 q 11719 511 11612 606 q 11868 363 11829 413 q 11930 214 11930 286 q 11853 90 11930 142 q 11721 46 11787 46 q 11591 87 11648 46 q 11515 243 11515 140 q 11499 54 11490 131 q 11540 16 11512 35 q 11671 -22 11595 -22 q 11897 49 11789 -22 q 12032 286 12032 138 q 11953 471 12032 380 q 11805 606 11916 515 z "},"A":{"ha":1348,"x_min":3,"x_max":1344,"o":"m 472 612 l 645 1080 l 812 610 l 472 612 m 1344 0 q 1284 24 1317 6 q 1187 117 1217 59 q 655 1389 1139 210 l 179 127 q 144 71 170 100 q 3 0 92 12 l 410 0 q 357 20 384 6 q 304 88 304 48 l 450 527 l 833 527 l 1012 66 q 905 0 937 45 l 1344 0 z "},"B":{"ha":857,"x_min":3,"x_max":854,"o":"m 448 63 q 330 68 345 63 q 291 155 291 83 q 286 699 291 263 l 534 699 q 628 663 581 697 q 723 429 723 593 q 626 146 723 249 q 448 63 547 63 m 291 1234 q 330 1320 291 1306 q 448 1326 345 1326 q 610 1267 549 1326 q 691 1009 691 1187 q 612 846 691 911 q 534 800 573 814 l 286 800 q 291 1234 291 1126 m 639 745 q 633 750 637 747 q 639 754 637 752 q 801 1095 771 855 q 620 1350 801 1283 q 328 1389 522 1386 l 3 1389 q 24 1380 12 1386 l 3 1389 q 60 1354 31 1377 q 121 1253 117 1308 l 121 136 q 60 35 117 81 q 3 0 31 12 l 24 9 q 3 0 12 3 l 382 0 q 680 56 563 -3 q 849 343 849 141 q 830 467 854 392 q 639 745 782 617 z "},"C":{"ha":1231,"x_min":3,"x_max":1227,"o":"m 1227 108 q 1122 54 1194 81 q 789 0 979 0 q 745 1 768 0 q 745 1 745 1 l 745 1 q 229 178 419 12 q 12 722 12 366 q 91 1055 3 889 q 745 1389 267 1389 q 1227 1331 1131 1360 l 1181 1023 q 1107 1175 1167 1099 q 760 1327 989 1327 q 325 1167 484 1327 q 163 720 163 1004 q 385 257 163 447 q 836 82 589 82 q 954 116 885 85 q 1192 315 1092 178 l 1227 108 z "},"D":{"ha":1327,"x_min":3,"x_max":1324,"o":"m 509 80 q 300 143 375 75 l 300 1228 q 584 1319 412 1319 q 1009 1162 854 1319 q 1167 724 1167 1003 q 951 262 1167 456 q 509 80 749 80 m 3 1389 q 131 1324 102 1364 q 140 1289 146 1304 l 140 86 q 73 23 134 51 l 3 0 l 555 0 q 1089 172 886 0 q 1316 727 1316 364 q 1238 1058 1324 892 q 599 1389 1067 1389 l 3 1389 z "},"E":{"ha":800,"x_min":3,"x_max":796,"o":"m 716 1364 l 768 1389 l 716 1135 q 694 1211 713 1173 q 571 1286 655 1286 l 307 1286 l 307 767 l 597 767 q 736 813 682 769 l 702 541 q 678 615 701 578 q 529 688 633 688 l 307 688 l 307 173 q 371 115 330 144 q 551 56 454 56 q 732 148 648 56 q 796 239 774 194 l 768 0 l 28 0 q 87 32 57 10 q 146 137 146 77 q 144 1270 146 233 q 3 1364 114 1333 l 716 1364 z "},"F":{"ha":772,"x_min":3,"x_max":768,"o":"m 307 767 l 307 1286 l 571 1286 q 694 1211 655 1286 q 716 1135 713 1173 l 768 1389 l 716 1364 l 3 1364 q 144 1270 114 1333 q 146 551 145 876 l 145 551 l 145 128 q 83 31 140 72 q 27 0 55 9 l 425 0 q 368 31 397 9 q 307 128 311 72 l 307 151 l 307 173 l 307 688 l 529 688 q 678 615 633 688 q 702 541 701 578 l 736 813 q 597 767 682 769 l 307 767 z "},"G":{"ha":1357,"x_min":3,"x_max":1354,"o":"m 1050 576 q 1040 612 1055 591 q 909 678 1010 653 l 1354 678 q 1223 612 1253 653 q 1213 576 1208 591 l 1213 96 q 1116 48 1183 73 q 789 0 979 0 q 243 165 447 0 q 12 722 12 353 q 91 1055 3 889 q 745 1389 267 1389 q 1228 1331 1131 1360 l 1181 1023 q 1107 1175 1167 1099 q 760 1328 989 1328 q 325 1167 484 1328 q 163 720 163 1004 q 385 257 163 447 q 836 82 589 82 q 1050 146 973 76 l 1050 576 z "},"H":{"ha":1331,"x_min":3,"x_max":1327,"o":"m 1209 1261 q 1271 1358 1213 1317 q 1327 1389 1299 1379 l 929 1389 q 986 1358 957 1379 q 1047 1261 1043 1317 l 1047 810 l 283 810 l 283 1261 q 345 1358 288 1317 q 401 1389 374 1379 l 3 1389 q 60 1358 31 1379 q 121 1261 117 1317 l 121 128 q 60 31 117 72 q 3 0 31 9 l 401 0 q 345 31 374 9 q 283 128 288 72 l 283 713 l 1047 713 l 1047 128 q 986 31 1043 72 q 929 0 957 9 l 1327 0 q 1271 31 1299 9 q 1209 128 1213 72 l 1209 1261 z "},"I":{"ha":405,"x_min":3,"x_max":401,"o":"m 283 1261 q 345 1358 288 1317 q 401 1389 374 1379 l 3 1389 q 60 1358 31 1379 q 121 1261 117 1317 l 121 128 q 60 31 117 72 q 3 0 31 9 l 401 0 q 345 31 374 9 q 283 128 288 72 l 283 1261 z "},"J":{"ha":568,"x_min":3,"x_max":565,"o":"m 447 1261 q 509 1358 451 1317 q 565 1389 537 1379 l 167 1389 q 223 1358 195 1379 q 285 1261 281 1317 l 285 248 q 208 85 256 126 q 3 60 144 31 q 39 30 9 45 q 216 0 98 0 q 419 103 362 -1 q 447 209 448 156 l 447 1261 z "},"K":{"ha":1327,"x_min":3,"x_max":1324,"o":"m 475 786 l 884 1187 q 1161 1389 1031 1356 l 776 1389 q 811 1380 797 1389 q 804 1317 839 1362 l 284 804 l 287 1282 q 401 1389 308 1357 l 3 1389 q 60 1358 31 1379 q 121 1261 117 1317 l 121 128 q 60 31 117 72 q 3 0 31 9 l 401 0 q 345 31 374 9 q 283 128 288 72 l 283 597 l 370 683 l 972 68 q 972 12 1000 28 q 939 5 958 5 l 1324 5 q 1047 207 1194 37 l 475 786 z "},"L":{"ha":814,"x_min":3,"x_max":810,"o":"m 310 1293 q 313 1297 311 1294 l 308 139 q 310 1293 308 237 m 561 58 q 378 117 462 58 q 313 176 335 146 l 313 1297 q 454 1389 351 1359 l 3 1389 q 146 1293 116 1356 q 149 139 149 237 q 88 33 149 78 q 28 0 58 10 l 782 0 l 810 243 q 745 151 787 197 q 561 58 659 58 z "},"M":{"ha":1742,"x_min":3,"x_max":1737,"o":"m 840 28 l 1301 861 l 1461 172 l 1461 127 q 1400 30 1457 71 q 1344 0 1371 9 l 1737 0 q 1682 30 1710 9 q 1621 127 1625 71 l 1414 1373 l 838 260 l 279 1389 l 120 143 q 59 46 116 87 q 3 16 31 25 l 397 16 q 341 46 370 25 q 280 143 285 87 l 280 187 l 376 892 l 833 32 l 838 27 l 839 27 l 839 26 l 840 28 z "},"N":{"ha":1415,"x_min":3,"x_max":1412,"o":"m 1014 1389 q 1070 1358 1042 1379 q 1132 1261 1128 1317 l 1132 328 l 121 1389 l 121 128 q 60 31 117 72 q 3 0 31 9 l 401 0 q 345 31 374 9 q 283 128 288 72 l 283 1048 l 1293 0 l 1293 1 l 1294 0 l 1294 1261 q 1356 1358 1298 1317 q 1412 1389 1384 1379 l 1014 1389 z "},"O":{"ha":1396,"x_min":3,"x_max":1392,"o":"m 821 1292 q 1078 1124 978 1244 q 1219 667 1219 956 q 1078 223 1219 378 q 821 80 978 113 l 821 1292 m 177 694 q 315 1136 177 975 q 570 1295 414 1250 l 570 91 q 315 252 414 136 q 177 694 177 414 m 725 1313 q 780 1303 752 1310 l 780 73 q 725 68 751 69 l 725 1313 m 656 72 q 611 80 635 75 l 611 1305 q 656 1312 633 1310 l 656 72 m 720 1388 q 362 1314 541 1399 q 3 671 3 1145 q 259 147 3 332 q 720 0 463 0 q 1159 169 958 0 q 1392 667 1392 364 q 1166 1192 1392 976 q 720 1388 960 1388 z "},"P":{"ha":873,"x_min":3,"x_max":870,"o":"m 281 690 q 287 1234 287 1126 q 317 1320 287 1308 q 428 1326 330 1326 q 606 1242 526 1326 q 703 960 703 1140 q 608 726 703 795 q 513 690 561 692 l 281 690 m 654 644 q 846 922 798 772 q 865 1046 870 997 q 573 1374 865 1314 q 281 1380 427 1404 l 3 1380 q 60 1350 31 1371 q 121 1253 117 1308 l 121 127 q 60 30 117 71 q 3 0 31 9 l 399 0 q 342 30 371 9 q 281 127 286 71 l 281 593 q 593 618 490 593 q 654 644 645 631 z "},"Q":{"ha":1396,"x_min":3,"x_max":1392,"o":"m 780 73 q 725 68 758 70 l 656 72 q 611 80 635 75 l 570 91 q 315 252 414 136 q 177 694 177 414 q 315 1136 177 975 q 570 1295 414 1250 l 611 1305 q 656 1312 633 1310 l 725 1313 q 780 1303 752 1310 l 821 1292 q 1078 1124 978 1244 q 1219 667 1219 956 q 1101 252 1219 404 q 878 224 981 328 q 1010 162 930 211 q 821 80 928 102 l 780 73 m 1175 182 q 1392 667 1392 376 q 1166 1192 1392 976 q 720 1388 960 1388 q 362 1314 541 1399 q 3 671 3 1145 q 259 147 3 332 q 720 0 463 0 q 1082 113 905 0 q 1124 80 1106 95 q 1276 1 1217 2 q 1369 39 1310 1 q 1306 61 1343 42 q 1175 182 1232 100 z "},"R":{"ha":1314,"x_min":3,"x_max":1311,"o":"m 281 690 q 287 1234 287 1126 q 317 1320 287 1308 q 428 1326 330 1326 q 606 1242 526 1326 q 703 960 703 1140 q 608 726 703 795 q 513 690 561 692 l 281 690 m 814 446 q 654 644 724 579 q 846 922 798 772 q 865 1046 870 997 q 573 1374 865 1314 q 281 1380 427 1404 l 3 1380 q 60 1350 31 1371 q 121 1253 117 1308 l 121 127 q 60 30 117 71 q 3 0 31 9 l 399 0 q 342 30 371 9 q 281 127 286 71 l 281 593 q 585 496 460 593 q 673 401 647 449 q 817 200 733 300 q 1100 0 983 0 q 1275 30 1217 0 q 1311 59 1305 45 q 1021 186 1179 32 q 814 446 932 273 z "},"S":{"ha":712,"x_min":3,"x_max":709,"o":"m 36 345 q 15 100 3 199 q 68 50 31 75 q 239 0 140 0 q 533 92 393 0 q 709 401 709 208 q 606 643 709 524 q 412 818 557 699 q 175 1149 175 1013 q 233 1276 175 1231 q 407 1322 293 1322 q 574 1236 511 1322 q 623 1096 623 1167 l 666 1336 q 621 1362 659 1350 q 402 1389 547 1389 q 130 1297 235 1389 q 33 1090 33 1211 q 110 886 33 987 q 300 694 161 819 q 495 503 444 567 q 575 308 575 401 q 475 146 575 213 q 303 89 389 89 q 134 142 208 89 q 36 345 36 212 z "},"T":{"ha":1090,"x_min":3,"x_max":1087,"o":"m 1035 1364 l 56 1364 l 3 1389 l 56 1135 q 77 1211 58 1173 q 201 1286 117 1286 l 463 1286 l 463 1270 q 465 551 464 876 l 465 128 q 403 31 460 72 q 346 0 374 9 l 744 0 q 688 31 716 9 q 626 128 630 72 l 626 551 q 627 1270 627 876 l 627 1286 l 890 1286 q 1013 1211 974 1286 q 1035 1135 1032 1173 l 1087 1389 l 1035 1364 z "},"U":{"ha":1389,"x_min":3,"x_max":1385,"o":"m 992 1389 q 1046 1361 1019 1383 q 1100 1237 1100 1316 l 1100 649 q 1011 217 1100 359 q 809 78 941 106 l 769 71 q 715 66 747 68 l 649 71 q 604 78 627 73 l 565 88 q 278 676 278 172 l 279 844 l 280 1262 q 341 1359 285 1318 q 397 1389 370 1379 l 3 1389 q 50 1367 26 1384 q 109 1270 98 1331 l 109 654 q 310 143 109 319 q 711 0 475 0 q 1090 165 930 0 q 1270 649 1270 348 l 1270 1264 q 1331 1360 1274 1319 q 1385 1389 1359 1379 l 992 1389 z "},"V":{"ha":1385,"x_min":3,"x_max":1381,"o":"m 979 1389 q 1037 1358 1008 1379 q 1099 1261 1095 1317 l 692 323 l 286 1261 q 349 1358 290 1317 q 406 1389 377 1379 l 3 1389 q 50 1366 26 1383 q 110 1268 100 1331 l 687 0 l 687 12 l 692 0 l 1274 1268 q 1334 1366 1284 1331 q 1381 1389 1359 1383 l 979 1389 z "},"W":{"ha":2074,"x_min":3,"x_max":2070,"o":"m 1381 323 l 1788 1261 q 1726 1358 1784 1317 q 1669 1389 1697 1379 l 2070 1389 q 2024 1366 2048 1383 q 1964 1268 1974 1331 l 1387 0 l 1387 12 l 1381 0 l 1037 744 l 692 0 l 687 12 l 687 0 l 110 1268 q 50 1366 100 1331 q 3 1389 26 1383 l 406 1389 q 349 1358 377 1379 q 286 1261 290 1317 l 692 323 l 954 924 l 1037 1134 l 1121 924 l 1381 323 z "},"X":{"ha":1137,"x_min":3,"x_max":1134,"o":"m 661 732 l 945 1268 q 1006 1366 956 1331 q 1053 1389 1030 1383 l 651 1389 q 708 1358 680 1379 q 770 1261 766 1317 l 577 884 l 576 882 l 576 884 l 367 1261 q 429 1358 371 1317 q 486 1389 458 1379 l 84 1389 q 132 1366 106 1383 q 192 1268 181 1331 l 484 721 l 111 121 q 51 23 100 58 q 3 0 26 5 l 406 0 q 349 31 377 9 q 286 129 290 72 l 479 419 l 568 574 l 658 419 l 851 129 q 764 0 844 38 l 1134 0 q 1086 23 1111 5 q 1026 121 1037 58 l 661 732 z "},"Y":{"ha":1125,"x_min":3,"x_max":1122,"o":"m 720 1389 q 777 1358 749 1379 q 840 1261 836 1317 l 563 792 l 286 1261 q 348 1358 290 1317 q 405 1389 377 1379 l 3 1389 q 50 1366 26 1383 q 110 1268 100 1331 l 481 672 l 481 128 q 420 31 477 72 q 363 0 391 9 l 762 0 q 705 31 734 9 q 644 128 648 72 l 644 678 l 1015 1268 q 1074 1366 1025 1331 q 1122 1389 1099 1383 l 720 1389 z "},"Z":{"ha":933,"x_min":3,"x_max":930,"o":"m 930 1389 l 62 1389 l 115 1156 q 137 1232 117 1194 q 262 1309 176 1309 l 689 1309 l 92 172 l 3 0 l 82 0 l 782 0 l 836 0 l 782 233 q 760 157 780 195 q 635 80 721 80 l 213 80 l 878 1291 l 930 1389 z "},"a":{"ha":1348,"x_min":3,"x_max":1344,"o":"m 472 612 l 645 1080 l 812 610 l 472 612 m 1344 0 q 1284 24 1317 6 q 1187 117 1217 59 q 655 1389 1139 210 l 179 127 q 144 71 170 100 q 3 0 92 12 l 410 0 q 357 20 384 6 q 304 88 304 48 l 450 527 l 833 527 l 1012 66 q 905 0 937 45 l 1344 0 z "},"b":{"ha":857,"x_min":3,"x_max":854,"o":"m 448 63 q 330 68 345 63 q 291 155 291 83 q 286 699 291 263 l 534 699 q 628 663 581 697 q 723 429 723 593 q 626 146 723 249 q 448 63 547 63 m 291 1234 q 330 1320 291 1306 q 448 1326 345 1326 q 610 1267 549 1326 q 691 1009 691 1187 q 612 846 691 911 q 534 800 573 814 l 286 800 q 291 1234 291 1126 m 639 745 q 633 750 637 747 q 639 754 637 752 q 801 1095 771 855 q 620 1350 801 1283 q 328 1389 522 1386 l 3 1389 q 24 1380 12 1386 l 3 1389 q 60 1354 31 1377 q 121 1253 117 1308 l 121 136 q 60 35 117 81 q 3 0 31 12 l 24 9 q 3 0 12 3 l 382 0 q 680 56 563 -3 q 849 343 849 141 q 830 467 854 392 q 639 745 782 617 z "},"c":{"ha":1231,"x_min":3,"x_max":1227,"o":"m 1227 108 q 1122 54 1194 81 q 789 0 979 0 q 745 1 768 0 q 745 1 745 1 l 745 1 q 229 178 419 12 q 12 722 12 366 q 91 1055 3 889 q 745 1389 267 1389 q 1227 1331 1131 1360 l 1181 1023 q 1107 1175 1167 1099 q 760 1327 989 1327 q 325 1167 484 1327 q 163 720 163 1004 q 385 257 163 447 q 836 82 589 82 q 954 116 885 85 q 1192 315 1092 178 l 1227 108 z "},"d":{"ha":1327,"x_min":3,"x_max":1324,"o":"m 509 80 q 300 143 375 75 l 300 1228 q 584 1319 412 1319 q 1009 1162 854 1319 q 1167 724 1167 1003 q 951 262 1167 456 q 509 80 749 80 m 3 1389 q 131 1324 102 1364 q 140 1289 146 1304 l 140 86 q 73 23 134 51 l 3 0 l 555 0 q 1089 172 886 0 q 1316 727 1316 364 q 1238 1058 1324 892 q 599 1389 1067 1389 l 3 1389 z "},"e":{"ha":800,"x_min":3,"x_max":796,"o":"m 716 1364 l 768 1389 l 716 1135 q 694 1211 713 1173 q 571 1286 655 1286 l 307 1286 l 307 767 l 597 767 q 736 813 682 769 l 702 541 q 678 615 701 578 q 529 688 633 688 l 307 688 l 307 173 q 371 115 330 144 q 551 56 454 56 q 732 148 648 56 q 796 239 774 194 l 768 0 l 28 0 q 87 32 57 10 q 146 137 146 77 q 144 1270 146 233 q 3 1364 114 1333 l 716 1364 z "},"f":{"ha":772,"x_min":3,"x_max":768,"o":"m 307 767 l 307 1286 l 571 1286 q 694 1211 655 1286 q 716 1135 713 1173 l 768 1389 l 716 1364 l 3 1364 q 144 1270 114 1333 q 146 551 145 876 l 145 551 l 145 128 q 83 31 140 72 q 27 0 55 9 l 425 0 q 368 31 397 9 q 307 128 311 72 l 307 151 l 307 173 l 307 688 l 529 688 q 678 615 633 688 q 702 541 701 578 l 736 813 q 597 767 682 769 l 307 767 z "},"g":{"ha":1357,"x_min":3,"x_max":1354,"o":"m 1050 576 q 1040 612 1055 591 q 909 678 1010 653 l 1354 678 q 1223 612 1253 653 q 1213 576 1208 591 l 1213 96 q 1116 48 1183 73 q 789 0 979 0 q 243 165 447 0 q 12 722 12 353 q 91 1055 3 889 q 745 1389 267 1389 q 1228 1331 1131 1360 l 1181 1023 q 1107 1175 1167 1099 q 760 1328 989 1328 q 325 1167 484 1328 q 163 720 163 1004 q 385 257 163 447 q 836 82 589 82 q 1050 146 973 76 l 1050 576 z "},"h":{"ha":1331,"x_min":3,"x_max":1327,"o":"m 1209 1261 q 1271 1358 1213 1317 q 1327 1389 1299 1379 l 929 1389 q 986 1358 957 1379 q 1047 1261 1043 1317 l 1047 810 l 283 810 l 283 1261 q 345 1358 288 1317 q 401 1389 374 1379 l 3 1389 q 60 1358 31 1379 q 121 1261 117 1317 l 121 128 q 60 31 117 72 q 3 0 31 9 l 401 0 q 345 31 374 9 q 283 128 288 72 l 283 713 l 1047 713 l 1047 128 q 986 31 1043 72 q 929 0 957 9 l 1327 0 q 1271 31 1299 9 q 1209 128 1213 72 l 1209 1261 z "},"i":{"ha":405,"x_min":3,"x_max":401,"o":"m 283 1261 q 345 1358 288 1317 q 401 1389 374 1379 l 3 1389 q 60 1358 31 1379 q 121 1261 117 1317 l 121 128 q 60 31 117 72 q 3 0 31 9 l 401 0 q 345 31 374 9 q 283 128 288 72 l 283 1261 z "},"j":{"ha":568,"x_min":3,"x_max":565,"o":"m 447 1261 q 509 1358 451 1317 q 565 1389 537 1379 l 167 1389 q 223 1358 195 1379 q 285 1261 281 1317 l 285 248 q 208 85 256 126 q 3 60 144 31 q 39 30 9 45 q 216 0 98 0 q 419 103 362 -1 q 447 209 448 156 l 447 1261 z "},"k":{"ha":1327,"x_min":3,"x_max":1324,"o":"m 475 786 l 884 1187 q 1161 1389 1031 1356 l 776 1389 q 811 1380 797 1389 q 804 1317 839 1362 l 284 804 l 287 1282 q 401 1389 308 1357 l 3 1389 q 60 1358 31 1379 q 121 1261 117 1317 l 121 128 q 60 31 117 72 q 3 0 31 9 l 401 0 q 345 31 374 9 q 283 128 288 72 l 283 597 l 370 683 l 972 68 q 972 12 1000 28 q 939 5 958 5 l 1324 5 q 1047 207 1194 37 l 475 786 z "},"l":{"ha":814,"x_min":3,"x_max":810,"o":"m 310 1293 q 313 1297 311 1294 l 308 139 q 310 1293 308 237 m 561 58 q 378 117 462 58 q 313 176 335 146 l 313 1297 q 454 1389 351 1359 l 3 1389 q 146 1293 116 1356 q 149 139 149 237 q 88 33 149 78 q 28 0 58 10 l 782 0 l 810 243 q 745 151 787 197 q 561 58 659 58 z "},"m":{"ha":1742,"x_min":3,"x_max":1737,"o":"m 840 28 l 1301 861 l 1461 172 l 1461 127 q 1400 30 1457 71 q 1344 0 1371 9 l 1737 0 q 1682 30 1710 9 q 1621 127 1625 71 l 1414 1373 l 838 260 l 279 1389 l 120 143 q 59 46 116 87 q 3 16 31 25 l 397 16 q 341 46 370 25 q 280 143 285 87 l 280 187 l 376 892 l 833 32 l 838 27 l 839 27 l 839 26 l 840 28 z "},"n":{"ha":1415,"x_min":3,"x_max":1412,"o":"m 1014 1389 q 1070 1358 1042 1379 q 1132 1261 1128 1317 l 1132 328 l 121 1389 l 121 128 q 60 31 117 72 q 3 0 31 9 l 401 0 q 345 31 374 9 q 283 128 288 72 l 283 1048 l 1293 0 l 1293 1 l 1294 0 l 1294 1261 q 1356 1358 1298 1317 q 1412 1389 1384 1379 l 1014 1389 z "},"o":{"ha":1396,"x_min":3,"x_max":1392,"o":"m 821 1292 q 1078 1124 978 1244 q 1219 667 1219 956 q 1078 223 1219 378 q 821 80 978 113 l 821 1292 m 177 694 q 315 1136 177 975 q 570 1295 414 1250 l 570 91 q 315 252 414 136 q 177 694 177 414 m 725 1313 q 780 1303 752 1310 l 780 73 q 725 68 751 69 l 725 1313 m 656 72 q 611 80 635 75 l 611 1305 q 656 1312 633 1310 l 656 72 m 720 1388 q 362 1314 541 1399 q 3 671 3 1145 q 259 147 3 332 q 720 0 463 0 q 1159 169 958 0 q 1392 667 1392 364 q 1166 1192 1392 976 q 720 1388 960 1388 z "},"p":{"ha":873,"x_min":3,"x_max":870,"o":"m 281 690 q 287 1234 287 1126 q 317 1320 287 1308 q 428 1326 330 1326 q 606 1242 526 1326 q 703 960 703 1140 q 608 726 703 795 q 513 690 561 692 l 281 690 m 654 644 q 846 922 798 772 q 865 1046 870 997 q 573 1374 865 1314 q 281 1380 427 1404 l 3 1380 q 60 1350 31 1371 q 121 1253 117 1308 l 121 127 q 60 30 117 71 q 3 0 31 9 l 399 0 q 342 30 371 9 q 281 127 286 71 l 281 593 q 593 618 490 593 q 654 644 645 631 z "},"q":{"ha":1396,"x_min":3,"x_max":1392,"o":"m 780 73 q 725 68 758 70 l 656 72 q 611 80 635 75 l 570 91 q 315 252 414 136 q 177 694 177 414 q 315 1136 177 975 q 570 1295 414 1250 l 611 1305 q 656 1312 633 1310 l 725 1313 q 780 1303 752 1310 l 821 1292 q 1078 1124 978 1244 q 1219 667 1219 956 q 1101 252 1219 404 q 878 224 981 328 q 1010 162 930 211 q 821 80 928 102 l 780 73 m 1175 182 q 1392 667 1392 376 q 1166 1192 1392 976 q 720 1388 960 1388 q 362 1314 541 1399 q 3 671 3 1145 q 259 147 3 332 q 720 0 463 0 q 1082 113 905 0 q 1124 80 1106 95 q 1276 1 1217 2 q 1369 39 1310 1 q 1306 61 1343 42 q 1175 182 1232 100 z "},"r":{"ha":1314,"x_min":3,"x_max":1311,"o":"m 281 690 q 287 1234 287 1126 q 317 1320 287 1308 q 428 1326 330 1326 q 606 1242 526 1326 q 703 960 703 1140 q 608 726 703 795 q 513 690 561 692 l 281 690 m 814 446 q 654 644 724 579 q 846 922 798 772 q 865 1046 870 997 q 573 1374 865 1314 q 281 1380 427 1404 l 3 1380 q 60 1350 31 1371 q 121 1253 117 1308 l 121 127 q 60 30 117 71 q 3 0 31 9 l 399 0 q 342 30 371 9 q 281 127 286 71 l 281 593 q 585 496 460 593 q 673 401 647 449 q 817 200 733 300 q 1100 0 983 0 q 1275 30 1217 0 q 1311 59 1305 45 q 1021 186 1179 32 q 814 446 932 273 z "},"s":{"ha":712,"x_min":3,"x_max":709,"o":"m 36 345 q 15 100 3 199 q 68 50 31 75 q 239 0 140 0 q 533 92 393 0 q 709 401 709 208 q 606 643 709 524 q 412 818 557 699 q 175 1149 175 1013 q 233 1276 175 1231 q 407 1322 293 1322 q 574 1236 511 1322 q 623 1096 623 1167 l 666 1336 q 621 1362 659 1350 q 402 1389 547 1389 q 130 1297 235 1389 q 33 1090 33 1211 q 110 886 33 987 q 300 694 161 819 q 495 503 444 567 q 575 308 575 401 q 475 146 575 213 q 303 89 389 89 q 134 142 208 89 q 36 345 36 212 z "},"t":{"ha":1090,"x_min":3,"x_max":1087,"o":"m 1035 1364 l 56 1364 l 3 1389 l 56 1135 q 77 1211 58 1173 q 201 1286 117 1286 l 463 1286 l 463 1270 q 465 551 464 876 l 465 128 q 403 31 460 72 q 346 0 374 9 l 744 0 q 688 31 716 9 q 626 128 630 72 l 626 551 q 627 1270 627 876 l 627 1286 l 890 1286 q 1013 1211 974 1286 q 1035 1135 1032 1173 l 1087 1389 l 1035 1364 z "},"u":{"ha":1389,"x_min":3,"x_max":1385,"o":"m 992 1389 q 1046 1361 1019 1383 q 1100 1237 1100 1316 l 1100 649 q 1011 217 1100 359 q 809 78 941 106 l 769 71 q 715 66 747 68 l 649 71 q 604 78 627 73 l 565 88 q 278 676 278 172 l 279 844 l 280 1262 q 341 1359 285 1318 q 397 1389 370 1379 l 3 1389 q 50 1367 26 1384 q 109 1270 98 1331 l 109 654 q 310 143 109 319 q 711 0 475 0 q 1090 165 930 0 q 1270 649 1270 348 l 1270 1264 q 1331 1360 1274 1319 q 1385 1389 1359 1379 l 992 1389 z "},"v":{"ha":1385,"x_min":3,"x_max":1381,"o":"m 979 1389 q 1037 1358 1008 1379 q 1099 1261 1095 1317 l 692 323 l 286 1261 q 349 1358 290 1317 q 406 1389 377 1379 l 3 1389 q 50 1366 26 1383 q 110 1268 100 1331 l 687 0 l 687 12 l 692 0 l 1274 1268 q 1334 1366 1284 1331 q 1381 1389 1359 1383 l 979 1389 z "},"w":{"ha":2074,"x_min":3,"x_max":2070,"o":"m 1381 323 l 1788 1261 q 1726 1358 1784 1317 q 1669 1389 1697 1379 l 2070 1389 q 2024 1366 2048 1383 q 1964 1268 1974 1331 l 1387 0 l 1387 12 l 1381 0 l 1037 744 l 692 0 l 687 12 l 687 0 l 110 1268 q 50 1366 100 1331 q 3 1389 26 1383 l 406 1389 q 349 1358 377 1379 q 286 1261 290 1317 l 692 323 l 954 924 l 1037 1134 l 1121 924 l 1381 323 z "},"x":{"ha":1137,"x_min":3,"x_max":1134,"o":"m 661 732 l 945 1268 q 1006 1366 956 1331 q 1053 1389 1030 1383 l 651 1389 q 708 1358 680 1379 q 770 1261 766 1317 l 577 884 l 576 882 l 576 884 l 367 1261 q 429 1358 371 1317 q 486 1389 458 1379 l 84 1389 q 132 1366 106 1383 q 192 1268 181 1331 l 484 721 l 111 121 q 51 23 100 58 q 3 0 26 5 l 406 0 q 349 31 377 9 q 286 129 290 72 l 479 419 l 568 574 l 658 419 l 851 129 q 764 0 844 38 l 1134 0 q 1086 23 1111 5 q 1026 121 1037 58 l 661 732 z "},"y":{"ha":1125,"x_min":3,"x_max":1122,"o":"m 720 1389 q 777 1358 749 1379 q 840 1261 836 1317 l 563 792 l 286 1261 q 348 1358 290 1317 q 405 1389 377 1379 l 3 1389 q 50 1366 26 1383 q 110 1268 100 1331 l 481 672 l 481 128 q 420 31 477 72 q 363 0 391 9 l 762 0 q 705 31 734 9 q 644 128 648 72 l 644 678 l 1015 1268 q 1074 1366 1025 1331 q 1122 1389 1099 1383 l 720 1389 z "},"z":{"ha":933,"x_min":3,"x_max":930,"o":"m 930 1389 l 62 1389 l 115 1156 q 137 1232 117 1194 q 262 1309 176 1309 l 689 1309 l 92 172 l 3 0 l 82 0 l 782 0 l 836 0 l 782 233 q 760 157 780 195 q 635 80 721 80 l 213 80 l 878 1291 l 930 1389 z "}}}
